<svg width="40" height="41" viewBox="0 0 40 41" fill="none" xmlns="http://www.w3.org/2000/svg">
<g id="search" clip-path="url(#clip0_2657_222)">
<path id="Vector" d="M25.8333 23.8333H24.5167L24.05 23.3833C25.6833 21.4833 26.6667 19.0167 26.6667 16.3333C26.6667 10.35 21.8167 5.5 15.8333 5.5C9.85 5.5 5 10.35 5 16.3333C5 22.3167 9.85 27.1667 15.8333 27.1667C18.5167 27.1667 20.9833 26.1833 22.8833 24.55L23.3333 25.0167V26.3333L31.6667 34.65L34.15 32.1667L25.8333 23.8333ZM15.8333 23.8333C11.6833 23.8333 8.33333 20.4833 8.33333 16.3333C8.33333 12.1833 11.6833 8.83333 15.8333 8.83333C19.9833 8.83333 23.3333 12.1833 23.3333 16.3333C23.3333 20.4833 19.9833 23.8333 15.8333 23.8333Z" fill="#B5B5B5"/>
</g>
<defs>
<clipPath id="clip0_2657_222">
<rect width="40" height="40" fill="white" transform="translate(0 0.5)"/>
</clipPath>
</defs>
</svg>
